<svg width="1280" height="800" viewBox="0 0 1280 800" fill="none" xmlns="http://www.w3.org/2000/svg">
<g clip-path="url(#clip0_6882_57)">
<rect width="1280" height="800" fill="white"/>
<circle cx="175" cy="695" r="34" fill="#D4F2FB"/>
<circle cx="326.459" cy="146.46" r="34" transform="rotate(-179.222 326.459 146.46)" fill="#D4F2FB"/>
<circle cx="21.7626" cy="596.764" r="19.5" transform="rotate(-179.222 21.7626 596.764)" fill="#AAE5F7"/>
<circle cx="368.763" cy="647.764" r="19.5" transform="rotate(-179.222 368.763 647.764)" fill="#AAE5F7"/>
<circle cx="282.763" cy="811.764" r="19.5" transform="rotate(-179.222 282.763 811.764)" fill="#AAE5F7"/>
<circle cx="1186" cy="722" r="34" fill="#D4F2FB"/>
<circle cx="999" cy="79" r="34" fill="#D4F2FB"/>
<circle cx="56.4588" cy="114.46" r="34" transform="rotate(-179.222 56.4588 114.46)" fill="#AAE5F7"/>
<circle cx="1062.76" cy="633.764" r="19.5" transform="rotate(-179.222 1062.76 633.764)" fill="#AAE5F7"/>
<circle cx="962.763" cy="749.764" r="19.5" transform="rotate(-179.222 962.763 749.764)" fill="#AAE5F7"/>
<circle cx="1243.17" cy="-10.6576" r="34" transform="rotate(-106.713 1243.17 -10.6576)" fill="#D4F2FB"/>
<circle cx="1194.1" cy="132.749" r="19.5" transform="rotate(74.0652 1194.1 132.749)" fill="#AAE5F7"/>
<circle cx="196.105" cy="25.1043" r="19.5" transform="rotate(74.0652 196.105 25.1043)" fill="#AAE5F7"/>
<circle cx="24.4587" cy="-4.54037" r="34" transform="rotate(-179.222 24.4587 -4.54037)" fill="#D4F2FB"/>
</g>
<defs>
<clipPath id="clip0_6882_57">
<rect width="1280" height="800" fill="white"/>
</clipPath>
</defs>
</svg>
